<?xml version="1.0" encoding="UTF-8" standalone="no"?>
<!-- Created with Inkscape (http://www.inkscape.org/) -->

<svg
   xmlns:dc="http://purl.org/dc/elements/1.1/"
   xmlns:cc="http://creativecommons.org/ns#"
   xmlns:rdf="http://www.w3.org/1999/02/22-rdf-syntax-ns#"
   xmlns:svg="http://www.w3.org/2000/svg"
   xmlns="http://www.w3.org/2000/svg"
   xmlns:sodipodi="http://sodipodi.sourceforge.net/DTD/sodipodi-0.dtd"
   xmlns:inkscape="http://www.inkscape.org/namespaces/inkscape"
   width="210mm"
   height="297mm"
   viewBox="0 0 744.09448819 1052.3622047"
   id="svg2"
   version="1.1"
   inkscape:version="0.91 r13725"
   sodipodi:docname="didier_badouel_triangle.svg">
  <sodipodi:namedview
     id="base"
     pagecolor="#ffffff"
     bordercolor="#666666"
     borderopacity="1.0"
     inkscape:pageopacity="0.0"
     inkscape:pageshadow="2"
     inkscape:zoom="1.889545"
     inkscape:cx="372.04724"
     inkscape:cy="577.14286"
     inkscape:document-units="px"
     inkscape:current-layer="layer1"
     showgrid="true"
     inkscape:snap-global="true"
     inkscape:window-width="1900"
     inkscape:window-height="1152"
     inkscape:window-x="8"
     inkscape:window-y="36"
     inkscape:window-maximized="0">
    <inkscape:grid
       type="xygrid"
       id="grid3336" />
  </sodipodi:namedview>
  <defs
     id="defs4">
    <marker
       inkscape:isstock="true"
       style="overflow:visible"
       id="marker6373"
       refX="0.0"
       refY="0.0"
       orient="auto"
       inkscape:stockid="Arrow2Lstart">
      <path
         transform="scale(1.1) translate(1,0)"
         d="M 8.7185878,4.0337352 L -2.2072895,0.016013256 L 8.7185884,-4.0017078 C 6.9730900,-1.6296469 6.9831476,1.6157441 8.7185878,4.0337352 z "
         style="fill-rule:evenodd;stroke-width:0.625;stroke-linejoin:round;stroke:#000000;stroke-opacity:1;fill:#000000;fill-opacity:1"
         id="path6375" />
    </marker>
    <marker
       inkscape:stockid="Arrow2Lstart"
       orient="auto"
       refY="0.0"
       refX="0.0"
       id="Arrow2Lstart"
       style="overflow:visible"
       inkscape:isstock="true"
       inkscape:collect="always">
      <path
         id="path5244"
         style="fill-rule:evenodd;stroke-width:0.625;stroke-linejoin:round;stroke:#000000;stroke-opacity:1;fill:#000000;fill-opacity:1"
         d="M 8.7185878,4.0337352 L -2.2072895,0.016013256 L 8.7185884,-4.0017078 C 6.9730900,-1.6296469 6.9831476,1.6157441 8.7185878,4.0337352 z "
         transform="scale(1.1) translate(1,0)" />
    </marker>
    <marker
       inkscape:stockid="Arrow2Lstart"
       orient="auto"
       refY="0"
       refX="0"
       id="Arrow2Lstart-4"
       style="overflow:visible"
       inkscape:isstock="true">
      <path
         inkscape:connector-curvature="0"
         id="path5244-5"
         style="fill:#000000;fill-opacity:1;fill-rule:evenodd;stroke:#000000;stroke-width:0.625;stroke-linejoin:round;stroke-opacity:1"
         d="M 8.7185878,4.0337352 -2.2072895,0.01601326 8.7185884,-4.0017078 c -1.7454984,2.3720609 -1.7354408,5.6174519 -6e-7,8.035443 z"
         transform="matrix(1.1,0,0,1.1,1.1,0)" />
    </marker>
    <marker
       inkscape:stockid="Arrow2Lstart"
       orient="auto"
       refY="0"
       refX="0"
       id="Arrow2Lstart-8"
       style="overflow:visible"
       inkscape:isstock="true"
       inkscape:collect="always">
      <path
         inkscape:connector-curvature="0"
         id="path5244-4"
         style="fill:#000000;fill-opacity:1;fill-rule:evenodd;stroke:#000000;stroke-width:0.625;stroke-linejoin:round;stroke-opacity:1"
         d="M 8.7185878,4.0337352 -2.2072895,0.01601326 8.7185884,-4.0017078 c -1.7454984,2.3720609 -1.7354408,5.6174519 -6e-7,8.035443 z"
         transform="matrix(1.1,0,0,1.1,1.1,0)" />
    </marker>
  </defs>
  <metadata
     id="metadata7">
    <rdf:RDF>
      <cc:Work
         rdf:about="">
        <dc:format>image/svg+xml</dc:format>
        <dc:type
           rdf:resource="http://purl.org/dc/dcmitype/StillImage" />
        <dc:title></dc:title>
      </cc:Work>
    </rdf:RDF>
  </metadata>
  <g
     inkscape:label="Layer 1"
     inkscape:groupmode="layer"
     id="layer1">
    <path
       style="fill:none;fill-rule:evenodd;stroke:#000000;stroke-width:2;stroke-linecap:round;stroke-linejoin:round;stroke-miterlimit:4;stroke-dasharray:none;stroke-opacity:1"
       d="M 110.50253,429.1202 361.50802,342.8648 509.1583,616.00691 Z"
       id="path3342"
       inkscape:connector-curvature="0" />
    <text
       xml:space="preserve"
       style="font-style:normal;font-weight:normal;font-size:40px;line-height:125%;font-family:Sans;letter-spacing:0px;word-spacing:0px;fill:#000000;fill-opacity:1;stroke:none;stroke-width:1px;stroke-linecap:butt;stroke-linejoin:miter;stroke-opacity:1"
       x="80"
       y="392.36221"
       id="text4144"
       sodipodi:linespacing="125%"><tspan
         sodipodi:role="line"
         id="tspan4146"
         x="80"
         y="392.36221" /></text>
    <g
       transform="matrix(0.6,0,0,0.6,-109.73674,218.35033)"
       id="g5009">
      <g
         style="font-style:normal;font-variant:normal;font-weight:normal;font-stretch:normal;letter-spacing:normal;word-spacing:normal;text-anchor:start;fill:none;fill-opacity:1;fill-rule:evenodd;stroke:#000000;stroke-linecap:butt;stroke-linejoin:miter;stroke-miterlimit:10.43299961;stroke-dasharray:none;stroke-dashoffset:0;stroke-opacity:1"
         id="g5011"
         transform="matrix(1.0629921,0,0,-1.0629921,-186.02362,789.27165)"
         xml:space="preserve"
         stroke-miterlimit="10.433"
         font-style="normal"
         font-variant="normal"
         font-weight="normal"
         font-stretch="normal"
         font-size-adjust="none"
         letter-spacing="normal"
         word-spacing="normal"><path
           style="fill:#000000;stroke-width:0"
           inkscape:connector-curvature="0"
           d="m 493.33,436.04 0.14,0.21 0.14,0.19 0.15,0.19 0.07,0.09 0.08,0.09 0.08,0.08 0.09,0.09 0.09,0.08 0.1,0.08 0.1,0.08 0.11,0.07 0.11,0.07 0.12,0.07 0.13,0.06 0.14,0.06 0.15,0.06 0.16,0.06 0.16,0.05 0.18,0.05 0.19,0.04 0.2,0.04 0.21,0.04 0.23,0.03 0.24,0.03 0.25,0.02 0.13,0.01 0.14,0.01 0.14,0.01 0.14,0.01 0.15,0.01 0.15,0 0.15,0 0.16,0.01 c 0.6,0 1.5,0 1.5,1.45 0,0.3 -0.25,0.89 -0.9,0.89 -1.44,0 -3.03,-0.14 -4.53,-0.14 -1.79,0 -3.74,0.14 -5.47,0.14 -0.41,0 -1.36,0 -1.36,-1.44 0,-0.9 0.86,-0.9 1.29,-0.9 0.25,0 1.71,0 2.8,-0.49 L 475,413.62 l -4.39,23.31 c -0.04,0.16 -0.09,0.55 -0.09,0.71 0,0.39 2.69,0.39 3.03,0.39 1.09,0 1.89,0 1.89,1.45 0,0.64 -0.48,0.89 -1.09,0.89 -1.24,0 -2.53,-0.09 -3.78,-0.09 -1.21,0 -2.44,-0.05 -3.64,-0.05 -1.14,0 -2.29,0.05 -3.44,0.05 -1.1,0 -2.24,0.09 -3.28,0.09 -0.46,0 -1.41,0 -1.41,-1.44 0,-0.9 0.8,-0.9 1.84,-0.9 0.66,0 1.25,0 1.96,-0.05 0.54,-0.05 0.59,-0.09 0.75,-0.94 l 5.67,-30.29 c 0.25,-1.39 0.8,-1.39 1.75,-1.39 1.39,0 1.64,0.34 2.28,1.29 z"
           id="path5013" /><path
           style="fill:#000000;stroke-width:0"
           inkscape:connector-curvature="0"
           d="m 503.14,420.4 0,0.06 0,0.05 0,0.06 0,0.05 0,0.05 0,0.04 -0.01,0.05 0,0.04 0,0.05 -0.01,0.04 0,0.04 -0.01,0.04 0,0.03 -0.01,0.04 -0.02,0.07 -0.02,0.06 -0.02,0.05 -0.02,0.06 -0.03,0.04 -0.03,0.05 -0.04,0.03 -0.04,0.04 -0.04,0.03 -0.05,0.03 -0.05,0.02 -0.06,0.02 -0.06,0.02 -0.07,0.01 -0.07,0.01 -0.08,0.01 -0.08,0.01 -0.09,0.01 -0.09,0 -0.1,0.01 -0.05,0 -0.06,0 -0.05,0 -0.06,0 -0.06,0 -0.06,0 -0.06,0 -0.07,0 -0.06,0 -0.07,0 c -2.17,-1.75 -5.03,-2.23 -7.81,-2.23 l -0.84,0 0,-1.96 0.84,0 c 1.39,0 3.51,0.25 4.98,0.74 l 0,-17.46 -5.5,0 0,-1.95 c 1.71,0.14 5.88,0.14 7.77,0.14 1.25,0 2.5,-0.03 3.76,-0.03 1.05,0 2.86,-0.05 3.86,-0.11 l 0,1.95 -5.36,0 z"
           id="path5015" /></g>    </g>
    <g
       transform="matrix(0.6,0,0,0.6,331.9255,418.49381)"
       id="g5065">
      <g
         style="font-style:normal;font-variant:normal;font-weight:normal;font-stretch:normal;letter-spacing:normal;word-spacing:normal;text-anchor:start;fill:none;fill-opacity:1;fill-rule:evenodd;stroke:#000000;stroke-linecap:butt;stroke-linejoin:miter;stroke-miterlimit:10.43299961;stroke-dasharray:none;stroke-dashoffset:0;stroke-opacity:1"
         word-spacing="normal"
         letter-spacing="normal"
         font-size-adjust="none"
         font-stretch="normal"
         font-weight="normal"
         font-variant="normal"
         font-style="normal"
         stroke-miterlimit="10.433"
         xml:space="preserve"
         transform="matrix(1.0629921,0,0,-1.0629921,-186.02362,789.27165)"
         id="g5067"><path
           style="fill:#000000;stroke-width:0"
           inkscape:connector-curvature="0"
           id="path5069"
           d="m 493.33,436.04 0.14,0.21 0.14,0.19 0.15,0.19 0.07,0.09 0.08,0.09 0.08,0.08 0.09,0.09 0.09,0.08 0.1,0.08 0.1,0.08 0.11,0.07 0.11,0.07 0.12,0.07 0.13,0.06 0.14,0.06 0.15,0.06 0.16,0.06 0.16,0.05 0.18,0.05 0.19,0.04 0.2,0.04 0.21,0.04 0.23,0.03 0.24,0.03 0.25,0.02 0.13,0.01 0.14,0.01 0.14,0.01 0.14,0.01 0.15,0.01 0.15,0 0.15,0 0.16,0.01 c 0.6,0 1.5,0 1.5,1.45 0,0.3 -0.25,0.89 -0.9,0.89 -1.44,0 -3.03,-0.14 -4.53,-0.14 -1.79,0 -3.74,0.14 -5.47,0.14 -0.41,0 -1.36,0 -1.36,-1.44 0,-0.9 0.86,-0.9 1.29,-0.9 0.25,0 1.71,0 2.8,-0.49 L 475,413.62 l -4.39,23.31 c -0.04,0.16 -0.09,0.55 -0.09,0.71 0,0.39 2.69,0.39 3.03,0.39 1.09,0 1.89,0 1.89,1.45 0,0.64 -0.48,0.89 -1.09,0.89 -1.24,0 -2.53,-0.09 -3.78,-0.09 -1.21,0 -2.44,-0.05 -3.64,-0.05 -1.14,0 -2.29,0.05 -3.44,0.05 -1.1,0 -2.24,0.09 -3.28,0.09 -0.46,0 -1.41,0 -1.41,-1.44 0,-0.9 0.8,-0.9 1.84,-0.9 0.66,0 1.25,0 1.96,-0.05 0.54,-0.05 0.59,-0.09 0.75,-0.94 l 5.67,-30.29 c 0.25,-1.39 0.8,-1.39 1.75,-1.39 1.39,0 1.64,0.34 2.28,1.29 z" /><path
           style="fill:#000000;stroke-width:0"
           inkscape:connector-curvature="0"
           id="path5071"
           d="m 509.38,406.7 -2.2,0 c -0.07,-0.41 -0.38,-2.89 -1,-3.03 -0.74,-0.13 -2.83,-0.13 -3.63,-0.13 l -4.78,0 c 1.92,1.42 3.87,2.85 5.89,4.14 2.83,1.82 5.72,3.66 5.72,7.14 0,4.19 -3.94,6.8 -9.49,6.8 -4.73,0 -8.28,-1.84 -8.28,-5.16 0,-2.01 1.63,-2.75 2.68,-2.75 1.26,0 2.71,0.86 2.71,2.72 0,1.68 -1.28,2.36 -1.39,2.41 1.25,0.8 2.86,0.83 3.28,0.83 2.96,0 5.3,-1.88 5.3,-4.88 0,-2.68 -1.81,-4.92 -3.84,-6.68 l -8.28,-7.36 c -0.43,-0.43 -0.46,-0.46 -0.46,-1.14 l 0,-0.85 16.58,0 z" /></g>    </g>
    <g
       transform="matrix(0.6,0,0,0.6,167.73152,119.57247)"
       id="g5129">
      <g
         style="font-style:normal;font-variant:normal;font-weight:normal;font-stretch:normal;letter-spacing:normal;word-spacing:normal;text-anchor:start;fill:none;fill-opacity:1;fill-rule:evenodd;stroke:#000000;stroke-linecap:butt;stroke-linejoin:miter;stroke-miterlimit:10.43299961;stroke-dasharray:none;stroke-dashoffset:0;stroke-opacity:1"
         id="g5131"
         transform="matrix(1.0629921,0,0,-1.0629921,-186.02362,789.27165)"
         xml:space="preserve"
         stroke-miterlimit="10.433"
         font-style="normal"
         font-variant="normal"
         font-weight="normal"
         font-stretch="normal"
         font-size-adjust="none"
         letter-spacing="normal"
         word-spacing="normal"><path
           style="fill:#000000;stroke-width:0"
           inkscape:connector-curvature="0"
           d="m 493.33,436.04 0.14,0.21 0.14,0.19 0.15,0.19 0.07,0.09 0.08,0.09 0.08,0.08 0.09,0.09 0.09,0.08 0.1,0.08 0.1,0.08 0.11,0.07 0.11,0.07 0.12,0.07 0.13,0.06 0.14,0.06 0.15,0.06 0.16,0.06 0.16,0.05 0.18,0.05 0.19,0.04 0.2,0.04 0.21,0.04 0.23,0.03 0.24,0.03 0.25,0.02 0.13,0.01 0.14,0.01 0.14,0.01 0.14,0.01 0.15,0.01 0.15,0 0.15,0 0.16,0.01 c 0.6,0 1.5,0 1.5,1.45 0,0.3 -0.25,0.89 -0.9,0.89 -1.44,0 -3.03,-0.14 -4.53,-0.14 -1.79,0 -3.74,0.14 -5.47,0.14 -0.41,0 -1.36,0 -1.36,-1.44 0,-0.9 0.86,-0.9 1.29,-0.9 0.25,0 1.71,0 2.8,-0.49 L 475,413.62 l -4.39,23.31 c -0.04,0.16 -0.09,0.55 -0.09,0.71 0,0.39 2.69,0.39 3.03,0.39 1.09,0 1.89,0 1.89,1.45 0,0.64 -0.48,0.89 -1.09,0.89 -1.24,0 -2.53,-0.09 -3.78,-0.09 -1.21,0 -2.44,-0.05 -3.64,-0.05 -1.14,0 -2.29,0.05 -3.44,0.05 -1.1,0 -2.24,0.09 -3.28,0.09 -0.46,0 -1.41,0 -1.41,-1.44 0,-0.9 0.8,-0.9 1.84,-0.9 0.66,0 1.25,0 1.96,-0.05 0.54,-0.05 0.59,-0.09 0.75,-0.94 l 5.67,-30.29 c 0.25,-1.39 0.8,-1.39 1.75,-1.39 1.39,0 1.64,0.34 2.28,1.29 z"
           id="path5133" /><path
           style="fill:#000000;stroke-width:0"
           inkscape:connector-curvature="0"
           d="m 509.86,409.84 0,0.41 0,0.43 -0.02,0.44 -0.01,0.46 -0.03,0.46 -0.04,0.48 -0.05,0.48 -0.06,0.49 -0.07,0.49 -0.09,0.49 -0.11,0.49 -0.13,0.49 -0.15,0.48 -0.17,0.48 -0.19,0.47 -0.22,0.46 -0.24,0.44 -0.27,0.43 -0.3,0.42 -0.33,0.39 -0.37,0.38 -0.39,0.35 -0.44,0.33 -0.22,0.15 -0.24,0.15 -0.25,0.14 -0.26,0.14 -0.27,0.12 -0.27,0.12 -0.29,0.11 -0.3,0.1 -0.31,0.1 -0.32,0.08 -0.33,0.08 -0.34,0.06 -0.35,0.06 -0.37,0.05 -0.37,0.03 -0.39,0.03 -0.4,0.02 -0.41,0 0,-1.61 c 1.33,0 3.59,-0.55 4.15,-2.95 0.38,-1.64 0.38,-4.53 0.38,-6.77 0,-2.43 0,-4.98 -0.34,-6.93 -0.49,-2.82 -2.89,-3.41 -4.19,-3.41 l 0,0 c -1.11,0 -2.16,0.37 -2.99,1.11 -0.95,0.8 -1.54,1.33 -1.54,9.23 0,2.41 0,5.16 0.39,6.83 0.56,2.27 2.72,2.89 4.14,2.89 l 0,1.61 c -8.92,0 -9.38,-7.53 -9.38,-11.78 0,-4.39 0.57,-11.5 9.38,-11.5 8.83,0 9.37,7.08 9.37,11.5 z"
           id="path5135" /></g>    </g>
    <g
       id="g5189"
       transform="matrix(0.6,0,0,0.6,130.31177,243.69172)">
      <g
         word-spacing="normal"
         letter-spacing="normal"
         font-size-adjust="none"
         font-stretch="normal"
         font-weight="normal"
         font-variant="normal"
         font-style="normal"
         stroke-miterlimit="10.433"
         xml:space="preserve"
         transform="matrix(1.0629921,0,0,-1.0629921,-186.02362,789.27165)"
         id="content"
         style="font-style:normal;font-variant:normal;font-weight:normal;font-stretch:normal;letter-spacing:normal;word-spacing:normal;text-anchor:start;fill:none;fill-opacity:1;fill-rule:evenodd;stroke:#000000;stroke-linecap:butt;stroke-linejoin:miter;stroke-miterlimit:10.43299961;stroke-dasharray:none;stroke-dashoffset:0;stroke-opacity:1"><path
           id="path5192"
           d="m 473.55,421.25 0.2,2.04 3.49,13.85 c 0.2,0.75 0.25,0.79 0.55,0.84 0.45,0.05 0.79,0.05 1.34,0.05 l 5.19,0 c 2.79,0 6.53,-0.49 6.53,-3.92 0,-0.61 -0.66,-5.69 -2.5,-8.08 -1.05,-1.35 -3.28,-2.74 -7.77,-2.74 l -6.83,0 -0.2,-2.04 8.83,0 c 9.16,0 15.44,5.57 15.44,11.45 0,5.09 -4.58,7.67 -11.16,7.67 l -19.19,0 c -0.93,0 -1.84,0 -1.84,-1.44 0,-0.9 0.7,-0.9 2.09,-0.9 1.05,0 2,-0.05 3.05,-0.1 l -7.13,-28.39 c -0.2,-0.79 -0.25,-0.86 -1.15,-0.95 -0.85,-0.05 -1.85,-0.05 -2.64,-0.05 -1.28,0 -1.39,0 -1.53,-0.15 -0.66,-0.3 -0.66,-1.05 -0.66,-1.3 0,-0.05 0,-0.89 1.09,-0.89 1.25,0 2.55,0.09 3.8,0.09 1.24,0 2.53,0.07 3.78,0.07 1.3,0 2.6,-0.07 3.83,-0.07 1.3,0 2.64,-0.09 3.89,-0.09 0.5,0 1.45,0 1.45,1.39 0,0.95 -0.61,0.95 -2.04,0.95 -1.05,0 -2,0.05 -3.05,0.1 z"
           inkscape:connector-curvature="0"
           style="fill:#000000;stroke-width:0" /></g>    </g>
    <circle
       style="fill:#000000;fill-opacity:1;stroke:none;stroke-width:2.20000005;stroke-linecap:round;stroke-linejoin:round;stroke-miterlimit:4;stroke-dasharray:none"
       id="path5216"
       cx="340.332"
       cy="459.53442"
       r="3" />
    <path
       style="fill:none;fill-rule:evenodd;stroke:#000000;stroke-width:1.5;stroke-linecap:butt;stroke-linejoin:miter;stroke-miterlimit:4;stroke-dasharray:none;stroke-opacity:1;marker-start:url(#Arrow2Lstart)"
       d="m 341.64206,459.01333 68.55527,-26.03475 0,0 0,0 0,0 0,0 0,0"
       id="path5220"
       inkscape:connector-curvature="0"
       inkscape:transform-center-x="0.44082436"
       inkscape:transform-center-y="8.037055" />
    <path
       style="fill:none;fill-rule:evenodd;stroke:#000000;stroke-width:1.50384331;stroke-linecap:butt;stroke-linejoin:miter;stroke-miterlimit:4;stroke-dasharray:none;stroke-opacity:1;marker-start:url(#Arrow2Lstart-8)"
       d="m 408.49455,430.04041 -47.42688,-87.08594 0,0 0,0 0,0 0,0 0,0"
       id="path5220-6"
       inkscape:connector-curvature="0"
       inkscape:transform-center-x="-0.30496335"
       inkscape:transform-center-y="26.883846" />
    <g
       transform="matrix(0.6,0,0,0.6,152.00971,283.93571)"
       id="g9471">
      <g
         style="font-style:normal;font-variant:normal;font-weight:normal;font-stretch:normal;letter-spacing:normal;word-spacing:normal;text-anchor:start;fill:none;fill-opacity:1;fill-rule:evenodd;stroke:#000000;stroke-linecap:butt;stroke-linejoin:miter;stroke-miterlimit:10.43299961;stroke-dasharray:none;stroke-dashoffset:0;stroke-opacity:1"
         id="g9473"
         transform="matrix(1.0629921,0,0,-1.0629921,-186.02362,789.27165)"
         xml:space="preserve"
         stroke-miterlimit="10.433"
         font-style="normal"
         font-variant="normal"
         font-weight="normal"
         font-stretch="normal"
         font-size-adjust="none"
         letter-spacing="normal"
         word-spacing="normal"><path
           style="fill:#000000;stroke-width:0"
           inkscape:connector-curvature="0"
           d="m 479.29,415.32 -0.01,0.37 -0.01,0.35 -0.02,0.35 -0.02,0.34 -0.06,0.65 -0.09,0.63 -0.11,0.59 -0.14,0.57 -0.15,0.54 -0.18,0.51 -0.19,0.49 -0.21,0.45 -0.23,0.43 -0.25,0.41 -0.26,0.38 -0.27,0.36 -0.29,0.33 -0.3,0.31 -0.31,0.28 -0.31,0.27 -0.33,0.24 -0.34,0.22 -0.34,0.2 -0.35,0.18 -0.35,0.16 -0.36,0.14 -0.35,0.12 -0.36,0.11 -0.37,0.08 -0.36,0.07 -0.36,0.06 -0.35,0.03 -0.35,0.03 -0.35,0 -0.05,-1.09 c 4.94,0 4.94,-6.53 4.94,-10.41 0,-1.84 0,-4.73 0.09,-5.57 l 0,0 c -4.37,-3.85 -8.22,-4.39 -10.2,-4.39 -3,0 -4.49,2.25 -4.49,5.43 0,2.44 1.3,7.82 2.89,10.36 2.33,3.64 5.04,4.58 6.77,4.58 l 0.05,1.09 c -6.82,0 -13.39,-7.12 -13.39,-14.14 0,-4.64 2.98,-8.42 8.06,-8.42 3.14,0 6.73,1.14 10.51,4.19 0.66,-2.64 2.3,-4.19 4.54,-4.19 2.64,0 4.18,2.74 4.18,3.53 0,0.36 -0.29,0.5 -0.59,0.5 -0.36,0 -0.5,-0.14 -0.66,-0.5 -0.89,-2.43 -2.68,-2.43 -2.78,-2.43 -1.54,0 -1.54,3.89 -1.54,5.07 0,1.05 0,1.16 0.5,1.75 4.68,5.88 5.73,11.66 5.73,11.71 0,0.11 -0.06,0.5 -0.61,0.5 -0.5,0 -0.5,-0.14 -0.75,-1.05 -0.89,-3.14 -2.53,-6.92 -4.87,-9.86 z"
           id="path9475" /><path
           style="fill:#000000;stroke-width:0"
           inkscape:connector-curvature="0"
           d="m 520.51,449.21 0.16,0.01 0.16,0 0.15,0 0.08,0.01 0.08,0 0.07,0.01 0.08,0.01 0.07,0.01 0.07,0.01 0.07,0.01 0.07,0.02 0.07,0.02 0.06,0.02 0.06,0.02 0.06,0.03 0.05,0.03 0.06,0.04 0.05,0.04 0.04,0.04 0.04,0.05 0.04,0.05 0.02,0.02 0.02,0.03 0.01,0.03 0.02,0.03 0.01,0.03 0.02,0.04 0.01,0.03 0.01,0.03 0.01,0.04 0,0.04 0.01,0.04 0.01,0.04 0,0.04 0.01,0.04 0,0.05 0,0.04 c 0,1 -0.91,1 -1.75,1 l -26.96,0 c -0.84,0 -1.73,0 -1.73,-1 0,-1 0.89,-1 1.73,-1 z"
           id="path9477" /><path
           style="fill:#000000;stroke-width:0"
           inkscape:connector-curvature="0"
           d="m 540.55,449.21 0.16,0.01 0.15,0 0.16,0 0.08,0.01 0.08,0 0.07,0.01 0.08,0.01 0.07,0.01 0.07,0.01 0.07,0.01 0.07,0.02 0.07,0.02 0.06,0.02 0.06,0.02 0.06,0.03 0.05,0.03 0.06,0.04 0.05,0.04 0.04,0.04 0.04,0.05 0.04,0.05 0.02,0.02 0.02,0.03 0.01,0.03 0.02,0.03 0.01,0.03 0.01,0.04 0.02,0.03 0.01,0.03 0.01,0.04 0,0.04 0.01,0.04 0.01,0.04 0,0.04 0,0.04 0.01,0.05 0,0.04 c 0,1 -0.91,1 -1.75,1 l -26.96,0 c -0.84,0 -1.73,0 -1.73,-1 0,-1 0.89,-1 1.73,-1 z"
           id="path9479" /><path
           style="fill:#000000;stroke-width:0"
           inkscape:connector-curvature="0"
           d="m 568.15,449.21 0.15,0.01 0.16,0 0.16,0 0.08,0.01 0.07,0 0.08,0.01 0.07,0.01 0.08,0.01 0.07,0.01 0.07,0.01 0.07,0.02 0.06,0.02 0.07,0.02 0.06,0.02 0.06,0.03 0.05,0.03 0.05,0.04 0.05,0.04 0.05,0.04 0.04,0.05 0.04,0.05 0.02,0.02 0.01,0.03 0.02,0.03 0.02,0.03 0.01,0.03 0.01,0.04 0.01,0.03 0.01,0.03 0.01,0.04 0.01,0.04 0.01,0.04 0,0.04 0.01,0.04 0,0.04 0,0.05 0.01,0.04 c 0,1 -0.91,1 -1.75,1 l -26.96,0 c -0.84,0 -1.73,0 -1.73,-1 0,-1 0.89,-1 1.73,-1 z"
           id="path9481" /><path
           style="fill:#000000;stroke-width:0"
           inkscape:connector-curvature="0"
           d="m 597.02,449.21 -0.25,-0.19 -0.25,-0.2 -0.23,-0.19 -0.23,-0.19 -0.22,-0.2 -0.21,-0.19 -0.21,-0.19 -0.2,-0.18 -0.19,-0.19 -0.18,-0.18 -0.18,-0.18 -0.16,-0.17 -0.16,-0.18 -0.16,-0.17 -0.15,-0.16 -0.14,-0.16 -0.13,-0.16 -0.13,-0.16 -0.12,-0.14 -0.11,-0.15 -0.11,-0.14 -0.1,-0.13 -0.09,-0.13 -0.09,-0.12 -0.08,-0.11 -0.07,-0.11 -0.07,-0.1 -0.07,-0.1 -0.06,-0.09 -0.05,-0.08 -0.04,-0.07 -0.05,-0.07 c -2.23,-3.43 -2.63,-6.57 -2.63,-6.62 0,-0.6 0.6,-0.6 1,-0.6 0.84,0 0.88,0.1 1.09,1 1.16,4.88 4.09,9.07 9.72,11.36 0.59,0.19 0.75,0.3 0.75,0.64 0,0.35 -0.3,0.5 -0.41,0.55 -2.19,0.85 -8.22,3.35 -10.11,11.72 -0.16,0.59 -0.2,0.73 -1.04,0.73 -0.4,0 -1,0 -1,-0.59 0,-0.09 0.45,-3.23 2.54,-6.58 1,-1.48 2.44,-3.23 4.58,-4.83 l -37.02,0 c -0.89,0 -1.79,0 -1.79,-1 0,-1 0.9,-1 1.79,-1 z"
           id="path9483" /><path
           style="fill:#000000;stroke-width:0"
           inkscape:connector-curvature="0"
           d="m 525.49,433.4 0.14,0.2 0.14,0.2 0.15,0.19 0.07,0.09 0.08,0.09 0.08,0.08 0.09,0.09 0.09,0.08 0.1,0.08 0.1,0.07 0.11,0.08 0.11,0.07 0.12,0.07 0.13,0.06 0.14,0.06 0.15,0.06 0.16,0.06 0.16,0.05 0.18,0.05 0.19,0.04 0.2,0.04 0.21,0.04 0.23,0.03 0.24,0.03 0.25,0.02 0.13,0.01 0.14,0.01 0.14,0.01 0.14,0.01 0.15,0.01 0.15,0 0.15,0 0.16,0.01 c 0.6,0 1.5,0 1.5,1.45 0,0.3 -0.25,0.89 -0.9,0.89 -1.44,0 -3.03,-0.14 -4.53,-0.14 -1.79,0 -3.74,0.14 -5.47,0.14 -0.41,0 -1.36,0 -1.36,-1.44 0,-0.9 0.86,-0.9 1.29,-0.9 0.25,0 1.71,0 2.8,-0.49 l -16.44,-23.92 -4.39,23.31 c -0.04,0.16 -0.09,0.55 -0.09,0.71 0,0.39 2.69,0.39 3.03,0.39 1.09,0 1.89,0 1.89,1.45 0,0.64 -0.48,0.89 -1.09,0.89 -1.24,0 -2.53,-0.09 -3.78,-0.09 -1.21,0 -2.44,-0.05 -3.64,-0.05 -1.14,0 -2.29,0.05 -3.44,0.05 -1.1,0 -2.24,0.09 -3.28,0.09 -0.46,0 -1.41,0 -1.41,-1.44 0,-0.9 0.8,-0.9 1.84,-0.9 0.66,0 1.25,0 1.96,-0.05 0.54,-0.05 0.59,-0.09 0.75,-0.94 l 5.67,-30.29 c 0.25,-1.4 0.8,-1.4 1.75,-1.4 1.39,0 1.64,0.35 2.28,1.3 z"
           id="path9485" /><path
           style="fill:#000000;stroke-width:0"
           inkscape:connector-curvature="0"
           d="m 542.02,407.2 0,0.41 0,0.43 -0.02,0.44 -0.01,0.45 -0.03,0.47 -0.04,0.48 -0.05,0.48 -0.06,0.49 -0.07,0.49 -0.09,0.49 -0.11,0.49 -0.13,0.49 -0.15,0.48 -0.17,0.48 -0.19,0.47 -0.22,0.45 -0.24,0.45 -0.27,0.43 -0.3,0.42 -0.33,0.39 -0.37,0.38 -0.39,0.35 -0.44,0.33 -0.22,0.15 -0.24,0.15 -0.25,0.14 -0.26,0.14 -0.27,0.12 -0.27,0.12 -0.29,0.11 -0.3,0.1 -0.31,0.09 -0.32,0.09 -0.33,0.07 -0.34,0.07 -0.35,0.06 -0.37,0.04 -0.37,0.04 -0.39,0.03 -0.4,0.01 -0.41,0.01 0,-1.61 c 1.33,0 3.59,-0.55 4.15,-2.95 0.38,-1.64 0.38,-4.53 0.38,-6.77 0,-2.44 0,-4.98 -0.34,-6.94 -0.49,-2.81 -2.89,-3.4 -4.19,-3.4 l 0,0 c -1.11,0 -2.16,0.37 -2.99,1.11 -0.95,0.79 -1.54,1.33 -1.54,9.23 0,2.41 0,5.16 0.39,6.83 0.56,2.27 2.72,2.89 4.14,2.89 l 0,1.61 c -8.92,0 -9.38,-7.53 -9.38,-11.78 0,-4.39 0.57,-11.5 9.38,-11.5 8.83,0 9.37,7.08 9.37,11.5 z"
           id="path9487" /><path
           style="fill:#000000;stroke-width:0"
           inkscape:connector-curvature="0"
           d="m 584.29,433.4 0.14,0.2 0.14,0.2 0.15,0.19 0.07,0.09 0.08,0.09 0.09,0.08 0.08,0.09 0.09,0.08 0.1,0.08 0.1,0.07 0.11,0.08 0.11,0.07 0.13,0.07 0.13,0.06 0.13,0.06 0.15,0.06 0.16,0.06 0.17,0.05 0.17,0.05 0.19,0.04 0.2,0.04 0.22,0.04 0.22,0.03 0.24,0.03 0.25,0.02 0.13,0.01 0.14,0.01 0.14,0.01 0.14,0.01 0.15,0.01 0.15,0 0.15,0 0.16,0.01 c 0.6,0 1.5,0 1.5,1.45 0,0.3 -0.25,0.89 -0.9,0.89 -1.44,0 -3.03,-0.14 -4.53,-0.14 -1.79,0 -3.74,0.14 -5.47,0.14 -0.41,0 -1.36,0 -1.36,-1.44 0,-0.9 0.86,-0.9 1.29,-0.9 0.25,0 1.71,0 2.8,-0.49 l -16.43,-23.92 -4.4,23.31 c -0.04,0.16 -0.09,0.55 -0.09,0.71 0,0.39 2.69,0.39 3.03,0.39 1.09,0 1.89,0 1.89,1.45 0,0.64 -0.48,0.89 -1.09,0.89 -1.24,0 -2.53,-0.09 -3.78,-0.09 -1.21,0 -2.44,-0.05 -3.64,-0.05 -1.14,0 -2.29,0.05 -3.44,0.05 -1.1,0 -2.23,0.09 -3.28,0.09 -0.45,0 -1.41,0 -1.41,-1.44 0,-0.9 0.8,-0.9 1.84,-0.9 0.66,0 1.25,0 1.96,-0.05 0.54,-0.05 0.59,-0.09 0.75,-0.94 l 5.67,-30.29 c 0.25,-1.4 0.8,-1.4 1.75,-1.4 1.39,0 1.64,0.35 2.28,1.3 z"
           id="path9489" /><path
           style="fill:#000000;stroke-width:0"
           inkscape:connector-curvature="0"
           d="m 594.1,417.76 0,0.06 0,0.05 0,0.06 0,0.05 0,0.05 0,0.04 -0.01,0.05 0,0.04 0,0.05 -0.01,0.04 0,0.04 -0.01,0.04 0,0.03 -0.01,0.04 -0.02,0.07 -0.02,0.06 -0.02,0.05 -0.02,0.06 -0.03,0.04 -0.03,0.05 -0.04,0.03 -0.04,0.04 -0.04,0.03 -0.05,0.02 -0.05,0.03 -0.06,0.02 -0.06,0.02 -0.07,0.01 -0.07,0.01 -0.08,0.01 -0.08,0.01 -0.09,0.01 -0.09,0 -0.1,0.01 -0.05,0 -0.06,0 -0.05,0 -0.06,0 -0.06,0 -0.06,0 -0.06,0 -0.07,0 -0.06,0 -0.07,0 c -2.17,-1.75 -5.03,-2.23 -7.81,-2.23 l -0.84,0 0,-1.96 0.84,0 c 1.39,0 3.51,0.25 4.98,0.74 l 0,-17.46 -5.5,0 0,-1.95 c 1.71,0.14 5.88,0.14 7.77,0.14 1.25,0 2.5,-0.03 3.76,-0.03 1.05,0 2.87,-0.05 3.87,-0.11 l 0,1.95 -5.37,0 z"
           id="path9491" /></g>    </g>
    <g
       id="g9583"
       transform="matrix(0.6,0,0,0.6,225.17296,169.47804)">
      <g
         word-spacing="normal"
         letter-spacing="normal"
         font-size-adjust="none"
         font-stretch="normal"
         font-weight="normal"
         font-variant="normal"
         font-style="normal"
         stroke-miterlimit="10.433"
         xml:space="preserve"
         transform="matrix(1.0629921,0,0,-1.0629921,-186.02362,789.27165)"
         id="g9585"
         style="font-style:normal;font-variant:normal;font-weight:normal;font-stretch:normal;letter-spacing:normal;word-spacing:normal;text-anchor:start;fill:none;fill-opacity:1;fill-rule:evenodd;stroke:#000000;stroke-linecap:butt;stroke-linejoin:miter;stroke-miterlimit:10.43299961;stroke-dasharray:none;stroke-dashoffset:0;stroke-opacity:1"><path
           id="path9587"
           d="m 484.16,431.9 -0.01,0.35 -0.02,0.34 -0.04,0.34 -0.06,0.34 -0.06,0.33 -0.09,0.32 -0.1,0.32 -0.11,0.3 -0.13,0.31 -0.14,0.29 -0.15,0.29 -0.17,0.27 -0.18,0.27 -0.19,0.26 -0.2,0.25 -0.22,0.24 -0.23,0.22 -0.24,0.22 -0.25,0.2 -0.26,0.19 -0.28,0.18 -0.28,0.17 -0.29,0.15 -0.31,0.14 -0.31,0.12 -0.32,0.11 -0.34,0.09 -0.34,0.08 -0.35,0.06 -0.35,0.04 -0.37,0.03 -0.38,0.01 c -2.89,0 -4.28,-0.8 -6.03,-2.09 -2.73,-1.99 -5.48,-6.83 -6.42,-10.61 l -7.92,-31.64 c -0.06,-0.19 0.19,-0.5 0.59,-0.5 0.39,0 0.55,0.11 0.6,0.25 l 3.48,13.75 c 0.95,-2.99 3.14,-4.83 6.78,-4.83 l -0.15,1.09 c -3.78,0 -5.68,2.89 -5.68,6.44 0,0.48 0,1.23 0.25,2.19 l 3.19,12.61 c 1.1,4.28 4.69,12.2 10.66,12.2 2.89,0 4.64,-1.55 4.64,-4.53 l 0,0 c 0,-3.5 -1.89,-7.08 -4.49,-8.63 -1.34,0.5 -2.34,0.6 -3.84,0.6 -1.05,0 -3.83,0.04 -3.83,-1.6 -0.04,-1.39 2.53,-1.23 3.44,-1.23 l 0.14,1.09 c -0.69,0 -1.69,-0.06 -2.19,0.19 0.11,0.5 1.89,0.41 2.44,0.41 1.05,0 1.5,0 2.14,-0.25 l 0,0 c -0.64,-0.25 -1.19,-0.35 -2.39,-0.35 l -0.14,-1.09 c 1.84,0 2.59,0.05 4.08,0.64 1.89,-1.8 2.14,-3.34 2.2,-5.63 0.1,-2.89 -1.11,-6.62 -2.5,-8.57 -1.94,-2.69 -5.28,-4.49 -8.12,-4.49 l 0.15,-1.09 c 3.64,0 7.38,1.75 9.61,3.94 2.39,2.29 4,5.48 4,9.17 0,3.58 -1.84,6.17 -3.64,7.42 2.89,1.64 5.72,4.73 5.72,8.31 z"
           inkscape:connector-curvature="0"
           style="fill:#000000;stroke-width:0" /><path
           id="path9589"
           d="m 519.19,449.21 0.16,0.01 0.16,0 0.15,0 0.08,0.01 0.08,0 0.07,0.01 0.08,0.01 0.07,0.01 0.07,0.01 0.07,0.01 0.07,0.02 0.07,0.02 0.06,0.02 0.06,0.02 0.06,0.03 0.05,0.03 0.06,0.04 0.05,0.04 0.04,0.04 0.04,0.05 0.04,0.05 0.02,0.02 0.02,0.03 0.01,0.03 0.02,0.03 0.01,0.03 0.02,0.04 0.01,0.03 0.01,0.03 0.01,0.04 0,0.04 0.01,0.04 0.01,0.04 0,0.04 0.01,0.04 0,0.05 0,0.04 c 0,1 -0.91,1 -1.75,1 l -26.96,0 c -0.84,0 -1.73,0 -1.73,-1 0,-1 0.89,-1 1.73,-1 z"
           inkscape:connector-curvature="0"
           style="fill:#000000;stroke-width:0" /><path
           id="path9591"
           d="m 539.23,449.21 0.16,0.01 0.15,0 0.16,0 0.08,0.01 0.08,0 0.07,0.01 0.08,0.01 0.07,0.01 0.07,0.01 0.07,0.01 0.07,0.02 0.06,0.02 0.07,0.02 0.06,0.02 0.06,0.03 0.05,0.03 0.06,0.04 0.04,0.04 0.05,0.04 0.04,0.05 0.04,0.05 0.02,0.02 0.02,0.03 0.01,0.03 0.02,0.03 0.01,0.03 0.01,0.04 0.02,0.03 0.01,0.03 0.01,0.04 0,0.04 0.01,0.04 0.01,0.04 0,0.04 0,0.04 0.01,0.05 0,0.04 c 0,1 -0.91,1 -1.75,1 l -26.96,0 c -0.84,0 -1.73,0 -1.73,-1 0,-1 0.89,-1 1.73,-1 z"
           inkscape:connector-curvature="0"
           style="fill:#000000;stroke-width:0" /><path
           id="path9593"
           d="m 566.95,449.21 0.15,0.01 0.16,0 0.16,0 0.08,0.01 0.07,0 0.08,0.01 0.07,0.01 0.08,0.01 0.07,0.01 0.07,0.01 0.07,0.02 0.06,0.02 0.07,0.02 0.06,0.02 0.06,0.03 0.05,0.03 0.05,0.04 0.05,0.04 0.05,0.04 0.04,0.05 0.04,0.05 0.02,0.02 0.02,0.03 0.01,0.03 0.02,0.03 0.01,0.03 0.01,0.04 0.01,0.03 0.01,0.03 0.01,0.04 0.01,0.04 0.01,0.04 0,0.04 0.01,0.04 0,0.04 0,0.05 0.01,0.04 c 0,1 -0.91,1 -1.75,1 l -26.96,0 c -0.84,0 -1.73,0 -1.73,-1 0,-1 0.89,-1 1.73,-1 z"
           inkscape:connector-curvature="0"
           style="fill:#000000;stroke-width:0" /><path
           id="path9595"
           d="m 595.7,449.21 -0.25,-0.19 -0.25,-0.2 -0.23,-0.19 -0.23,-0.19 -0.22,-0.2 -0.22,-0.19 -0.2,-0.19 -0.2,-0.18 -0.19,-0.19 -0.18,-0.18 -0.18,-0.18 -0.16,-0.17 -0.17,-0.18 -0.15,-0.17 -0.15,-0.16 -0.14,-0.16 -0.13,-0.16 -0.13,-0.16 -0.12,-0.14 -0.11,-0.15 -0.11,-0.14 -0.1,-0.13 -0.09,-0.13 -0.09,-0.12 -0.08,-0.11 -0.07,-0.11 -0.07,-0.1 -0.07,-0.1 -0.06,-0.09 -0.05,-0.08 -0.04,-0.07 -0.04,-0.07 c -2.24,-3.43 -2.65,-6.57 -2.65,-6.62 0,-0.6 0.61,-0.6 1,-0.6 0.85,0 0.9,0.1 1.1,1 1.15,4.88 4.09,9.07 9.72,11.36 0.59,0.19 0.75,0.3 0.75,0.64 0,0.35 -0.3,0.5 -0.41,0.55 -2.19,0.85 -8.22,3.35 -10.11,11.72 -0.15,0.59 -0.2,0.73 -1.05,0.73 -0.39,0 -1,0 -1,-0.59 0,-0.09 0.46,-3.23 2.55,-6.58 1,-1.48 2.44,-3.23 4.58,-4.83 l -37.02,0 c -0.89,0 -1.79,0 -1.79,-1 0,-1 0.9,-1 1.79,-1 z"
           inkscape:connector-curvature="0"
           style="fill:#000000;stroke-width:0" /><path
           id="path9597"
           d="m 524.17,433.4 0.14,0.2 0.14,0.2 0.15,0.19 0.07,0.09 0.08,0.09 0.08,0.08 0.09,0.09 0.09,0.08 0.1,0.08 0.1,0.07 0.11,0.08 0.11,0.07 0.12,0.07 0.13,0.06 0.14,0.06 0.15,0.06 0.16,0.06 0.16,0.05 0.18,0.05 0.19,0.04 0.2,0.04 0.21,0.04 0.23,0.03 0.24,0.03 0.25,0.02 0.13,0.01 0.14,0.01 0.14,0.01 0.14,0.01 0.15,0.01 0.15,0 0.15,0 0.16,0.01 c 0.6,0 1.5,0 1.5,1.45 0,0.3 -0.25,0.89 -0.9,0.89 -1.44,0 -3.03,-0.14 -4.53,-0.14 -1.79,0 -3.74,0.14 -5.47,0.14 -0.41,0 -1.36,0 -1.36,-1.44 0,-0.9 0.86,-0.9 1.29,-0.9 0.25,0 1.71,0 2.8,-0.49 l -16.44,-23.92 -4.39,23.31 c -0.04,0.16 -0.09,0.55 -0.09,0.71 0,0.39 2.69,0.39 3.03,0.39 1.09,0 1.89,0 1.89,1.45 0,0.64 -0.48,0.89 -1.09,0.89 -1.24,0 -2.53,-0.09 -3.78,-0.09 -1.21,0 -2.44,-0.05 -3.64,-0.05 -1.15,0 -2.29,0.05 -3.44,0.05 -1.1,0 -2.24,0.09 -3.28,0.09 -0.46,0 -1.41,0 -1.41,-1.44 0,-0.9 0.8,-0.9 1.84,-0.9 0.66,0 1.25,0 1.96,-0.05 0.54,-0.05 0.59,-0.09 0.75,-0.94 l 5.67,-30.29 c 0.25,-1.4 0.8,-1.4 1.75,-1.4 1.39,0 1.64,0.35 2.28,1.3 z"
           inkscape:connector-curvature="0"
           style="fill:#000000;stroke-width:0" /><path
           id="path9599"
           d="m 540.7,407.2 0,0.41 0,0.43 -0.02,0.44 -0.01,0.45 -0.03,0.47 -0.04,0.48 -0.05,0.48 -0.06,0.49 -0.07,0.49 -0.09,0.49 -0.11,0.49 -0.13,0.49 -0.15,0.48 -0.17,0.48 -0.19,0.47 -0.22,0.45 -0.24,0.45 -0.27,0.43 -0.3,0.42 -0.33,0.39 -0.37,0.38 -0.39,0.35 -0.44,0.33 -0.22,0.15 -0.24,0.15 -0.25,0.14 -0.26,0.14 -0.27,0.12 -0.27,0.12 -0.29,0.11 -0.3,0.1 -0.31,0.09 -0.32,0.09 -0.33,0.07 -0.34,0.07 -0.35,0.06 -0.37,0.04 -0.37,0.04 -0.39,0.03 -0.4,0.01 -0.41,0.01 0,-1.61 c 1.33,0 3.59,-0.55 4.15,-2.95 0.38,-1.64 0.38,-4.53 0.38,-6.77 0,-2.44 0,-4.98 -0.34,-6.94 -0.49,-2.81 -2.9,-3.4 -4.19,-3.4 l 0,0 c -1.11,0 -2.16,0.37 -2.99,1.11 -0.95,0.79 -1.54,1.33 -1.54,9.23 0,2.41 0,5.16 0.39,6.83 0.56,2.27 2.72,2.89 4.14,2.89 l 0,1.61 c -8.92,0 -9.38,-7.53 -9.38,-11.78 0,-4.39 0.57,-11.5 9.38,-11.5 8.83,0 9.37,7.08 9.37,11.5 z"
           inkscape:connector-curvature="0"
           style="fill:#000000;stroke-width:0" /><path
           id="path9601"
           d="m 582.97,433.4 0.14,0.2 0.14,0.2 0.15,0.19 0.07,0.09 0.08,0.09 0.09,0.08 0.08,0.09 0.09,0.08 0.1,0.08 0.1,0.07 0.11,0.08 0.11,0.07 0.13,0.07 0.13,0.06 0.13,0.06 0.15,0.06 0.16,0.06 0.17,0.05 0.17,0.05 0.19,0.04 0.2,0.04 0.21,0.04 0.23,0.03 0.24,0.03 0.25,0.02 0.13,0.01 0.14,0.01 0.14,0.01 0.14,0.01 0.15,0.01 0.15,0 0.15,0 0.16,0.01 c 0.6,0 1.5,0 1.5,1.45 0,0.3 -0.25,0.89 -0.9,0.89 -1.44,0 -3.03,-0.14 -4.53,-0.14 -1.79,0 -3.74,0.14 -5.47,0.14 -0.41,0 -1.36,0 -1.36,-1.44 0,-0.9 0.86,-0.9 1.29,-0.9 0.25,0 1.71,0 2.8,-0.49 l -16.43,-23.92 -4.4,23.31 c -0.04,0.16 -0.09,0.55 -0.09,0.71 0,0.39 2.69,0.39 3.03,0.39 1.09,0 1.89,0 1.89,1.45 0,0.64 -0.48,0.89 -1.09,0.89 -1.24,0 -2.53,-0.09 -3.78,-0.09 -1.21,0 -2.44,-0.05 -3.64,-0.05 -1.14,0 -2.29,0.05 -3.44,0.05 -1.1,0 -2.23,0.09 -3.28,0.09 -0.45,0 -1.41,0 -1.41,-1.44 0,-0.9 0.8,-0.9 1.84,-0.9 0.66,0 1.25,0 1.96,-0.05 0.54,-0.05 0.59,-0.09 0.75,-0.94 l 5.67,-30.29 c 0.25,-1.4 0.8,-1.4 1.75,-1.4 1.39,0 1.64,0.35 2.28,1.3 z"
           inkscape:connector-curvature="0"
           style="fill:#000000;stroke-width:0" /><path
           id="path9603"
           d="m 599.02,404.06 -2.2,0 c -0.07,-0.41 -0.38,-2.89 -1,-3.03 -0.74,-0.13 -2.83,-0.13 -3.63,-0.13 l -4.78,0 c 1.92,1.42 3.87,2.85 5.89,4.14 2.83,1.82 5.72,3.66 5.72,7.14 0,4.19 -3.94,6.8 -9.49,6.8 -4.73,0 -8.28,-1.84 -8.28,-5.16 0,-2.01 1.63,-2.75 2.68,-2.75 1.26,0 2.72,0.86 2.72,2.72 0,1.67 -1.29,2.36 -1.4,2.41 1.25,0.8 2.86,0.83 3.28,0.83 2.96,0 5.3,-1.88 5.3,-4.88 0,-2.69 -1.81,-4.92 -3.84,-6.69 l -8.28,-7.35 c -0.43,-0.43 -0.46,-0.46 -0.46,-1.15 l 0,-0.84 16.58,0 z"
           inkscape:connector-curvature="0"
           style="fill:#000000;stroke-width:0" /></g>    </g>
  </g>
</svg>
